<svg version="1.0" xmlns="http://www.w3.org/2000/svg" width="2222.667" height="2222.667" viewBox="0 0 1667 1667"><path d="M405.7.7c-.2.5 70.4 105 157 232.3 86.5 127.3 157.2 231.8 157.1 232.2-.2.4-78.6 97.8-174.3 216.4-95.7 118.6-173.9 216-173.8 216.5.2.6 223.2 297.3 301 400.6l2.5 3.2-151.6 181.8c-88.2 105.7-151.2 182.1-150.7 182.6s1.6.7 2.5.5c2-.4 304.8-363.7 304.4-365.3-.2-.7-68.2-91.6-151.3-202-83-110.3-151-201.2-150.9-201.8.1-.7 78.2-98.1 173.7-216.4C646.9 562.9 725 465.6 725 465c0-.6-70.9-105.4-157.6-233C455.4 67.2 409.2 0 407.9 0c-1 0-2 .3-2.2.7z"/><path d="M550.6.8c-.2.4 70.4 105 157 232.4L865 464.9 691.4 680.2C595.9 798.6 517.3 896 516.8 896.7c-.6.8 46.3 63.9 145.3 195.5 80.4 106.8 148.8 197.7 152 201.9l5.8 7.6-151.5 181.8c-83.2 99.9-151.1 182.1-150.8 182.6.3.5 1.3.9 2.2.8 1.9 0 304.8-363.2 304.6-365.3-.1-.7-67.9-91.4-150.8-201.6-82.9-110.1-151-200.8-151.3-201.5-.2-.7 77.8-98.2 173.3-216.7 95.6-118.4 173.8-216 173.8-216.8 0-2.7-314.7-465-316.6-465-.9 0-1.9.3-2.2.8z"/><path d="M627 .9c0 .5 70.7 105 157.1 232.1 86.4 127.2 156.8 231.8 156.6 232.5-.3.7-78.7 98.1-174.3 216.5C605.2 881.9 592.8 897.5 594 899.4c.7 1.2 68.8 91.8 151.3 201.5 82.5 109.6 150 199.9 150.1 200.7 0 .7-67.6 82.6-150.4 181.9-82.8 99.4-150.5 181.2-150.5 181.8 0 .6.7 1.3 1.6 1.5 1.1.2 50-57.7 153.8-182.3l152.2-182.6L750 1099.8C615.5 921 598.1 897.5 599.3 896.1c.8-.9 78.7-97.5 173.2-214.6C867 564.3 944.9 467.7 945.7 466.8c1.3-1.5-14.5-25.1-156.4-234C668.1 54.4 630.9.4 629.2.2c-1.2-.2-2.2.1-2.2.7z"/><path d="M825.6.8c-.3.6 70.1 105 156.5 232.2 86.4 127.1 156.8 231.7 156.5 232.5-.2.7-78.6 98.2-174.2 216.6-161 199.5-173.6 215.4-172.4 217.3.7 1.2 68.9 91.9 151.4 201.6 82.6 109.7 150.1 200.1 150.1 200.7 0 .7-67.9 82.7-150.8 182.3-83 99.5-150.6 181.4-150.2 182 .3.5 1.2 1 2 1 .7 0 69.8-82.1 153.5-182.5l152.1-182.6-19.4-25.7C962 1118.6 797 899 796.8 898.2c-.2-.5 78-98 173.7-216.6 95.7-118.6 174.1-216 174.2-216.4.4-1.4-315.3-464.7-316.9-465-.9-.2-1.9.1-2.2.6zM1247 .6c0 .3 70.8 104.7 157.3 232 86.4 127.3 157.2 231.8 157.2 232.3S1483.9 562 1389 679.6s-173.3 214.8-174.2 216c-1.7 2.1-.3 4.1 106.9 146.5 59.7 79.4 128.1 170.4 152 202.1l43.4 57.7-150.3 180.3c-82.7 99.1-151.1 181.3-152.1 182.5l-1.8 2.3H1667V0h-210c-115.5 0-210 .3-210 .6z"/></svg>