<svg version="1.0" xmlns="http://www.w3.org/2000/svg" width="2222.667" height="2222.667" viewBox="0 0 1667 1667"><path d="M575.8 11.7c41.9 41.5 73.7 92.3 88.6 141.6 8.8 29.1 11.9 50.6 11.9 81.7 0 89.2-30.3 156.8-81.8 182.7-17.3 8.7-37.9 13.6-57.5 13.6-25.1 0-40.3-7.2-48.3-23-3.6-7-4.6-11.2-6.2-25.8-1.6-15.5-2.6-18.5-5.7-18.5-10.8 0-26.7 26.5-30 49.8-4.2 29.7 16.7 50.7 58.7 58.9 12.8 2.5 43.7 2.5 55.5 0 18.3-3.9 36.5-11.6 51.9-21.9 55-36.8 99.2-116.1 106-189.8 7.5-81.1-28.8-173-98.7-250.2L610.5.1 587.2 0H564l11.8 11.7zm900.3 4c52.3 53.2 83.8 113 94.4 178.8 2.3 13.7 3.1 51.7 1.5 68.7-5.3 58.8-23 104.7-51 132.8-22.6 22.5-54.2 35.3-87.5 35.4-25.1 0-40.5-7.6-48.6-23.9-3-6.2-4.6-13.5-6.7-32.3-.5-4.5-1.5-8.9-2.2-9.7-5-6-19.4 8.8-27 28-8.9 22-7.7 41.2 3.4 54.8 20.1 24.7 77.5 34.2 121.3 20.1 59.6-19.1 115-89 135.6-171 10.9-43.2 9.2-90.5-4.9-137.1-15.5-51.2-48.6-107.6-88.5-150.6l-9-9.7h-46.2l15.4 15.7z"/><path d="M1194.1 262.5c-21.7 6.1-36.4 27-43.3 61.7-3 15.3-3.3 45.2-.4 60.3 5.9 31.6 20.9 59.2 46.5 85.8 26.1 27 58.5 48.9 96.6 65.2 58.7 25 114.8 30.4 175.5 16.9 63.6-14.3 132.2-52 188.8-104.1l9.2-8.5v-24.9c0-13.7-.2-24.9-.5-24.9s-4.7 4.3-9.6 9.5c-30.1 31.5-68.5 59.8-107.8 79.4-45.7 22.9-88.3 33.1-138.1 33.2-72.1.1-132.6-18-170.5-50.8-28.2-24.4-44.9-62.4-44.9-101.8 0-20.8 4.5-34.7 14.4-44.6 9-9 19.7-12.8 41.4-14.9 14.2-1.3 17-2.3 17.4-6.6.8-7.9-18.8-22.2-39.8-28.9-10.7-3.4-26.6-4.3-34.9-2zm-169.1 494c-39.1 7.1-64.8 53.8-66.7 121.1-.9 29.4 1.8 49.4 9.8 74 23.4 71.6 94.2 138.5 189.6 179.3 71.9 30.7 141.3 39.4 216.8 27 6.6-1.1 20.1-4 30.1-6.4 35.8-8.8 66.9-20.4 103.4-38.7 52.5-26.2 99.9-58.9 144.8-100l14.2-13v-69l-17.8 17.8c-44.3 44.6-90.9 78.7-143.4 104.9-51.8 25.8-102.7 40.1-158.3 44.6-18.5 1.5-62.1.6-82.5-1.6-102.1-11-175.3-46.7-212.4-103.7-20.8-31.9-33.3-80.2-29.8-114.9 2.2-21.6 8-36.5 18.7-47.7 13.1-13.9 25.7-18.6 58.5-21.6 17.2-1.6 20.2-2.4 22.5-6 1.5-2.2 1.5-2.7 0-6.3-5.1-12.2-32.2-30-56-36.7-16.4-4.7-27.9-5.5-41.5-3.1zM551 960.1c-149 8.8-304.7 71.2-450.6 180.5-32.1 23.9-60.1 47.4-86.2 72.1L0 1226.2v112.7l8.7-9.2c4.7-5.1 15.4-15.9 23.7-24.1 107.8-106.4 236.8-183.2 364.9-217.5 60.6-16.2 113.3-23.1 176.5-23.1 140.3 0 271.1 34.2 354.9 92.6 24.1 16.8 50.1 40.8 66.1 61.1 49.8 63.1 75.9 160.4 62.2 231.8-8.1 41.7-29 69.6-62.2 83-16.1 6.4-31.4 9.3-65.2 12-25.5 2.1-31.4 3.6-35 8.7-6.9 9.8 10.8 31.1 40.6 49.2 41.6 25.3 90.8 35.7 126 26.7 54.5-14 89.8-70.4 102.4-163.6 2.1-15.4 3-62.9 1.5-80.8-4.5-53.1-21-102.6-49.8-149.6-52.7-86.2-147.8-164.2-264.5-217-100.1-45.3-199.8-64.9-299.8-59z"/></svg>