<svg version="1.0" xmlns="http://www.w3.org/2000/svg" width="2222.667" height="2222.667" viewBox="0 0 1667 1667"><path d="M0 833.5V1667h1667V0H0v833.5zm848.4-694.4C904.9 215 951.6 277 952 276.8c.4-.2 65.5-62.2 144.6-137.8 79.1-75.6 144.2-137.5 144.7-137.5s34.3 60.3 75.1 134 74.5 134.6 75 135.4c.6 1 9.5-7.3 34-31.8l33.2-33.2 98.2 66.2c54 36.4 98.1 66.3 98 66.4-.2.1-60 38.3-133 84.9L1389 508.2l28.3 24.1c15.6 13.3 77.9 66.5 138.5 118.2 104 88.6 110.1 94 108.5 95.6-1 .9-56.9 42.7-124.3 93-67.4 50.2-128.9 96.1-136.7 101.9l-14.2 10.7 138.5 144.8c76.2 79.7 138.1 145.1 137.7 145.5-.4.4-61.3 34.2-135.3 75-74 40.9-134.7 74.5-134.9 74.7-.3.2 14.3 15.2 32.3 33.3 22.9 23 32.6 33.5 32.2 34.5-.5 1.4-102.9 153.9-123.6 184.2l-7.7 11.2-84.9-132.9c-64.8-101.5-85.2-132.6-86-131.7-.7.7-53.7 62.8-117.9 138.2-64.2 75.3-117 137.1-117.4 137.2-.3.1-46.9-61.9-103.5-137.7-56.5-75.9-103.2-138-103.7-138-.4 0-65.7 62.1-145.1 138-79.4 75.8-144.6 137.6-145.1 137.1-.4-.4-34.1-61-74.8-134.7-40.7-73.6-74.4-134.2-74.7-134.6-.4-.4-15.5 13.9-33.7 31.7-18.1 17.8-33.3 32.4-33.7 32.5-1.2 0-194.9-130.7-195-131.6 0-.4 59.3-38.6 131.8-85 72.5-46.3 131.9-84.6 132-85 .2-.5-61.8-53.8-137.7-118.4C63.1 975.4 1.1 922.2 1.2 921.8c.2-.4 62.2-46.9 137.8-103.3 75.6-56.4 137.6-102.9 137.8-103.3.1-.4-61.9-65.7-137.8-145.1C63.1 490.7 1 425.5 1 425.1c0-.3 61-34.3 135.6-75.5l135.5-74.9-33.1-33.3-33.2-33.3 14.5-21.3c7.9-11.7 37.2-55.3 65.2-96.8 27.9-41.5 51.3-76.1 51.9-76.7.9-1 20.9 29.8 85.6 131.2 46.5 72.8 84.8 132.4 85.1 132.4.4.1 53.6-62 118.3-137.9C691.2 63.1 744.4 1 744.8 1c.4.1 47 62.2 103.6 138.1z"/><path d="M875 434.2c-2.2 12.5-10.9 46.4-17.5 68.3-30.8 101.7-78.6 190.1-135.9 251.5-50.5 54-112.2 90.1-176.5 103.4l-11.2 2.3 8.8 2.3c63 16.5 135.5 62 186 116.8 72.9 79.2 119.8 177.9 144.7 305.2l4.3 21.5 1.2-9c14.2-100.8 54.3-202.7 108.5-275.5 39.6-53.2 87.9-94 143.1-121 11.6-5.6 21.7-9.9 44.8-18.8 1.4-.6-.3-1.6-6.5-4.1-30.2-12.2-76.4-38.3-108.5-61.4-96.7-69.6-157.8-157.5-178.3-256.2-5.8-28.2-7.4-44.9-7.4-78.5 0-18.3.5-35.1 1.2-41.9.7-6.2 1.1-11.5.9-11.7-.2-.2-1 2.9-1.7 6.8z"/></svg>