<?xml version="1.0" standalone="no"?>
<!DOCTYPE svg PUBLIC "-//W3C//DTD SVG 20010904//EN"
 "http://www.w3.org/TR/2001/REC-SVG-20010904/DTD/svg10.dtd">
<svg version="1.0" xmlns="http://www.w3.org/2000/svg"
 width="1667.000000pt" height="1667.000000pt" viewBox="0 0 1667.000000 1667.000000"
 preserveAspectRatio="xMidYMid meet">

<g transform="translate(0.000000,1667.000000) scale(0.100000,-0.100000)"
fill="#000000" stroke="none">
<path d="M0 8335 l0 -8335 8335 0 8335 0 0 8335 0 8335 -8335 0 -8335 0 0
-8335z m8484 6944 c565 -759 1032 -1379 1036 -1377 4 2 655 622 1446 1378 791
756 1442 1375 1447 1375 5 0 343 -603 751 -1340 408 -737 745 -1346 750 -1354
6 -10 95 73 340 318 l332 332 982 -662 c540 -364 981 -663 980 -664 -2 -1
-600 -383 -1330 -849 l-1328 -848 283 -241 c156 -133 779 -665 1385 -1182
1040 -886 1101 -940 1085 -956 -10 -9 -569 -427 -1243 -930 -674 -502 -1289
-961 -1367 -1019 l-142 -107 1385 -1448 c762 -797 1381 -1451 1377 -1455 -4
-4 -613 -342 -1353 -750 -740 -409 -1347 -745 -1349 -747 -3 -2 143 -152 323
-333 229 -230 326 -335 322 -345 -5 -14 -1029 -1539 -1236 -1842 l-77 -112
-849 1329 c-648 1015 -852 1326 -860 1317 -7 -7 -537 -628 -1179 -1382 -642
-753 -1170 -1371 -1174 -1372 -3 -1 -469 619 -1035 1377 -565 759 -1032 1380
-1037 1380 -4 0 -657 -621 -1451 -1380 -794 -758 -1446 -1376 -1451 -1371 -4
4 -341 610 -748 1347 -407 736 -744 1342 -747 1346 -4 4 -155 -139 -337 -317
-181 -178 -333 -324 -337 -325 -12 0 -1949 1307 -1950 1316 0 4 593 386 1318
850 725 463 1319 846 1320 850 2 5 -618 538 -1377 1184 -758 646 -1378 1178
-1377 1182 2 4 622 469 1378 1033 756 564 1376 1029 1378 1033 1 4 -619 657
-1378 1451 -759 794 -1380 1446 -1380 1450 0 3 610 343 1356 755 l1355 749
-331 333 -332 333 145 213 c79 117 372 553 652 968 279 415 513 761 519 767 9
10 209 -298 856 -1312 465 -728 848 -1324 851 -1324 4 -1 536 620 1183 1379
648 759 1180 1380 1184 1380 4 -1 470 -622 1036 -1381z"/>
<path d="M8750 12328 c-22 -125 -109 -464 -175 -683 -308 -1017 -786 -1901
-1359 -2515 -505 -540 -1122 -901 -1765 -1034 l-112 -23 88 -23 c630 -165
1355 -620 1860 -1168 729 -792 1198 -1779 1447 -3052 l43 -215 12 90 c142
1008 543 2027 1085 2755 396 532 879 940 1431 1210 116 56 217 99 448 188 14
6 -3 16 -65 41 -302 122 -764 383 -1085 614 -967 696 -1578 1575 -1783 2562
-58 282 -74 449 -74 785 0 183 5 351 12 419 7 62 11 115 9 117 -2 2 -10 -29
-17 -68z"/>
</g>
</svg>
