<?xml version="1.0" standalone="no"?>
<!DOCTYPE svg PUBLIC "-//W3C//DTD SVG 20010904//EN"
 "http://www.w3.org/TR/2001/REC-SVG-20010904/DTD/svg10.dtd">
<svg version="1.0" xmlns="http://www.w3.org/2000/svg"
 width="1667.000000pt" height="1667.000000pt" viewBox="0 0 1667.000000 1667.000000"
 preserveAspectRatio="xMidYMid meet">

<g transform="translate(0.000000,1667.000000) scale(0.100000,-0.100000)"
fill="#000000" stroke="none">
<path d="M4057 16663 c-2 -5 704 -1050 1570 -2323 865 -1273 1572 -2318 1571
-2322 -2 -4 -786 -978 -1743 -2164 -957 -1186 -1739 -2160 -1738 -2165 2 -6
2232 -2973 3010 -4006 l25 -32 -1516 -1818 c-882 -1057 -1512 -1821 -1507
-1826 5 -5 16 -7 25 -5 20 4 3048 3637 3044 3653 -2 7 -682 916 -1513 2020
-830 1103 -1510 2012 -1509 2018 1 7 782 981 1737 2164 956 1184 1737 2157
1737 2163 0 6 -709 1054 -1576 2330 -1120 1648 -1582 2320 -1595 2320 -10 0
-20 -3 -22 -7z"/>
<path d="M5506 16662 c-2 -4 704 -1050 1570 -2324 l1574 -2317 -1736 -2153
c-955 -1184 -1741 -2158 -1746 -2165 -6 -8 463 -639 1453 -1955 804 -1068
1488 -1977 1520 -2019 l58 -76 -1515 -1818 c-832 -999 -1511 -1821 -1508
-1826 3 -5 13 -9 22 -8 19 0 3048 3632 3046 3653 -1 7 -679 914 -1508 2016
-829 1101 -1510 2008 -1513 2015 -2 7 778 982 1733 2167 956 1184 1738 2160
1738 2168 0 27 -3147 4650 -3166 4650 -9 0 -19 -3 -22 -8z"/>
<path d="M6270 16661 c0 -5 707 -1050 1571 -2321 864 -1272 1568 -2318 1566
-2325 -3 -7 -787 -981 -1743 -2165 -1612 -1999 -1736 -2155 -1724 -2174 7 -12
688 -918 1513 -2015 825 -1096 1500 -1999 1501 -2007 0 -7 -676 -826 -1504
-1819 -828 -994 -1505 -1812 -1505 -1818 0 -6 7 -13 16 -15 11 -2 500 577
1538 1823 l1522 1826 -1521 2021 c-1345 1788 -1519 2023 -1507 2037 8 9 787
975 1732 2146 945 1172 1724 2138 1732 2147 13 15 -145 251 -1564 2340 -1212
1784 -1584 2324 -1601 2326 -12 2 -22 -1 -22 -7z"/>
<path d="M8256 16662 c-3 -6 701 -1050 1565 -2322 864 -1271 1568 -2317 1565
-2325 -2 -7 -786 -982 -1742 -2166 -1610 -1995 -1736 -2154 -1724 -2173 7 -12
689 -919 1514 -2016 826 -1097 1501 -2001 1501 -2007 0 -7 -679 -827 -1508
-1823 -830 -995 -1506 -1814 -1502 -1820 3 -5 12 -10 20 -10 7 0 698 821 1535
1825 l1521 1826 -194 257 c-1187 1576 -2837 3772 -2839 3780 -2 5 780 980
1737 2166 957 1186 1741 2160 1742 2164 4 14 -3153 4647 -3169 4650 -9 2 -19
-1 -22 -6z"/>
<path d="M12470 16664 c0 -3 708 -1047 1573 -2320 864 -1273 1572 -2318 1572
-2323 0 -5 -776 -971 -1725 -2147 -949 -1176 -1733 -2148 -1742 -2160 -17 -21
-3 -41 1069 -1465 597 -794 1281 -1704 1520 -2021 l434 -577 -1503 -1803
c-827 -991 -1511 -1813 -1521 -1825 l-18 -23 2270 0 2271 0 0 8335 0 8335
-2100 0 c-1155 0 -2100 -3 -2100 -6z"/>
</g>
</svg>
