<?xml version="1.0" standalone="no"?>
<!DOCTYPE svg PUBLIC "-//W3C//DTD SVG 20010904//EN"
 "http://www.w3.org/TR/2001/REC-SVG-20010904/DTD/svg10.dtd">
<svg version="1.0" xmlns="http://www.w3.org/2000/svg"
 width="1667.000000pt" height="1667.000000pt" viewBox="0 0 1667.000000 1667.000000"
 preserveAspectRatio="xMidYMid meet">

<g transform="translate(0.000000,1667.000000) scale(0.100000,-0.100000)"
fill="#000000" stroke="none">
<path d="M5758 16553 c419 -415 737 -923 886 -1416 88 -291 119 -506 119 -817
0 -892 -303 -1568 -818 -1827 -173 -87 -379 -136 -575 -136 -251 0 -403 72
-483 230 -36 70 -46 112 -62 258 -16 155 -26 185 -57 185 -108 0 -267 -265
-300 -498 -42 -297 167 -507 587 -589 128 -25 437 -25 555 0 183 39 365 116
519 219 550 368 992 1161 1060 1898 75 811 -288 1730 -987 2502 l-97 107 -233
1 -232 0 118 -117z"/>
<path d="M14761 16513 c523 -532 838 -1130 944 -1788 23 -137 31 -517 15 -687
-53 -588 -230 -1047 -510 -1328 -226 -225 -542 -353 -875 -354 -251 0 -405 76
-486 239 -30 62 -46 135 -67 323 -5 45 -15 89 -22 97 -50 60 -194 -88 -270
-280 -89 -220 -77 -412 34 -548 201 -247 775 -342 1213 -201 596 191 1150 890
1356 1710 109 432 92 905 -49 1371 -155 512 -486 1076 -885 1506 l-90 97 -231
0 -231 0 154 -157z"/>
<path d="M11941 14045 c-217 -61 -364 -270 -433 -617 -30 -153 -33 -452 -4
-603 59 -316 209 -592 465 -858 261 -270 585 -489 966 -652 587 -250 1148
-304 1755 -169 636 143 1322 520 1888 1041 l92 85 0 249 c0 137 -2 249 -5 249
-3 0 -47 -43 -96 -95 -301 -315 -685 -598 -1078 -794 -457 -229 -883 -331
-1381 -332 -721 -1 -1326 180 -1705 508 -282 244 -449 624 -449 1018 0 208 45
347 144 446 90 90 197 128 414 149 142 13 170 23 174 66 8 79 -188 222 -398
289 -107 34 -266 43 -349 20z"/>
<path d="M10250 9105 c-391 -71 -648 -538 -667 -1211 -9 -294 18 -494 98 -740
234 -716 942 -1385 1896 -1793 719 -307 1413 -394 2168 -270 66 11 201 40 301
64 358 88 669 204 1034 387 525 262 999 589 1448 1000 l142 130 0 345 0 345
-178 -178 c-443 -446 -909 -787 -1434 -1049 -518 -258 -1027 -401 -1583 -446
-185 -15 -621 -6 -825 16 -1021 110 -1753 467 -2124 1037 -208 319 -333 802
-298 1149 22 216 80 365 187 477 131 139 257 186 585 216 172 16 202 24 225
60 15 22 15 27 0 63 -51 122 -322 300 -560 367 -164 47 -279 55 -415 31z"/>
<path d="M5510 7069 c-1490 -88 -3047 -712 -4506 -1805 -321 -239 -601 -474
-862 -721 l-142 -135 0 -563 0 -564 87 92 c47 51 154 159 237 241 1078 1064
2368 1832 3649 2175 606 162 1133 231 1765 231 1403 0 2711 -342 3549 -926
241 -168 501 -408 661 -611 498 -631 759 -1604 622 -2318 -81 -417 -290 -696
-622 -830 -161 -64 -314 -93 -652 -120 -255 -21 -314 -36 -350 -87 -69 -98
108 -311 406 -492 416 -253 908 -357 1260 -267 545 140 898 704 1024 1636 21
154 30 629 15 808 -45 531 -210 1026 -498 1496 -527 862 -1478 1642 -2645
2170 -1001 453 -1998 649 -2998 590z"/>
</g>
</svg>
